<?xml version="1.0" encoding="utf-8"?>
<!-- Generator: Adobe Illustrator 18.1.1, SVG Export Plug-In . SVG Version: 6.00 Build 0)  -->
<svg version="1.1" id="" xmlns="http://www.w3.org/2000/svg" xmlns:xlink="http://www.w3.org/1999/xlink" x="0px" y="0px"
	 viewBox="0 0 441 96" style="enable-background:new 0 0 441 96;" xml:space="preserve" focusable="false">
<g>
	<g>
		<rect x="7.2" y="57.2" style="fill:#0000C2;" width="46.8" height="35"/>
		<rect x="52.2" y="52.4" style="fill:#FFA816;" width="48.8" height="35.9"/>
		<rect x="2.7" y="24.8" style="fill:#73BE1E;" width="48.4" height="32.6"/>
		<rect x="47.9" y="22.2" style="fill:#FF2203;" width="48.8" height="34.4"/>
		<g>
			<path style="fill:#FFFFFF;" d="M50.3,45.7c-0.4-0.4,0.5-2.3,0.4-3.6l-0.5-8c-0.1-1.4-0.5-2.8,0.5-3.6c1.3-1.3,4.3-1.2,5.2,0.1
				c0.7,1.1-0.6,2.1-0.6,3.3l0.2,7.6c0,1.4,1.1,2.5-0.1,3.9C54.1,46.7,51.7,47.2,50.3,45.7z M6.5,61.1l7.6,3.5
				c1.4,0.6,3.7,0.7,4,1.2c1.1,1.7-0.5,5.1-2.5,5.4c-1.7,0.4-2.5-0.8-4.1-1.4L7,67.9 M7,67.7l-2.8-1.2c-1.3-0.5-2.8,0.1-3.6-0.8
				c-1-1.2,0.1-5.2,1.9-5.7c1.2-0.4,2.5,0.5,4,1.1 M100.5,66.5l-7.9,3.6c-1.4,0.7-2.2,1.9-4,1.6c-2.2-0.4-4-3.6-3-5.3
				c0.2-0.5,2.5-0.6,4-1.3l10.9-5.2 M100.4,59.9c1.4-0.7,2.7-1.6,4-1.2c1.8,0.5,3.4,4.3,2.4,5.6c-0.8,1-2.3,0.4-3.6,1l-2.8,1.3
				 M27.8,50.8c-0.7-0.6-0.5-1.3-1.1-2.1l-4.8-8.2L20,39c-0.1-2.1,3.5-3.9,5.4-2.7c0.8,0.5,0.8,1.1,1.3,1.9l5,8.9
				c0.6,1,1.7,1.3,1.7,2.4C33.2,51.4,29.4,52.1,27.8,50.8z M72.1,51.2c0-1.1,1.1-1.4,1.7-2.4l6.5-10c0.5-0.7,0.6-1.4,1.3-1.9
				c1.9-1.2,5.6,0.6,5.4,2.8l-1.9,1.6l-6.4,9.3c-0.6,0.7-0.4,1.4-1.1,2.1C76.1,54,72.3,53.1,72.1,51.2z M59.1,71.5
				c1.2-1,3.7-1.4,6.3-0.4c1.4,0.6,2.1,2.7,1,3.5c-1,0.8-2.1,0.1-3.7,0.1c-1.1,0-2.2,0.6-3,0.1C58.6,74.3,57.7,72.6,59.1,71.5z
				 M37.6,71.5c1.2-1,3.7-1.4,6.3-0.4c1.4,0.6,2.1,2.7,1,3.5c-1,0.8-2.1,0.1-3.7,0.1c-1.1,0-2.2,0.6-3,0.1
				C37.2,74.4,36.3,72.6,37.6,71.5z M21.4,73.4c0,1.9,1.8,3.5,4,3.5s4-1.6,4-3.5c0-8.2,9.9-15,22.2-15S74,65.1,74,73.3
				c0,1.9,1.8,3.5,4,3.5s4-1.6,4-3.5c0-12.1-13.7-21.9-30.4-21.9C34.9,51.4,21.4,61.3,21.4,73.4z"/>
			<path style="fill:#FFA816;" d="M101,59.6c1.4-0.7,2.7-1.6,4-1.2c1.8,0.5,3.4,4.3,2.4,5.6c-0.7,1-2.3,0.4-3.6,1l-2.8,1.3"/>
			<path style="fill:#0000C2;" d="M7,67.9l-2.8-1.2c-1.3-0.5-2.8,0.1-3.6-0.8c-1-1.2,0.1-5.2,1.9-5.7c1.3-0.4,3.1,0.5,4.6,1.1"/>
		</g>
	</g>
	<g>
		<g>
			<path style="fill:#00418C;" d="M133.3,69.1c2.7,0,4.5,2.2,4.5,5.3s-1.8,5.3-4.5,5.3h-12.6c-3.6,0-5.6-2.8-5.6-7.5V33.7
				c0-4,1.8-6.6,4.5-6.6s4.5,2.7,4.5,6.6v35.4H133.3z"/>
			<path style="fill:#00418C;" d="M146.7,63.7c1.3,4.6,3.4,6.8,6.8,6.8c1.6,0,2.9-0.5,4.6-1.6l2.4-1.7c0.5-0.4,1.1-0.6,1.8-0.6
				c1.8,0,3.5,2.3,3.5,4.7c0,4.7-6.2,9.1-12.8,9.1c-9.2,0-15.6-8.2-15.6-19.9c0-12.1,6.3-21,14.7-21c8,0,14.3,8.6,14.3,19.7
				c0,3.1-1.1,4.5-3.7,4.5h-15.9V63.7z M157.9,56c-1-5-2.7-7.1-5.6-7.1c-2.9,0-4.8,2.2-6,7.1H157.9z"/>
			<path style="fill:#00418C;" d="M197.5,73.4c0,4-1.7,6.8-4.3,6.8c-2.1,0-3.4-1.4-4.3-4.5c-2.2,3.6-3.9,4.7-7,4.7
				c-7.7,0-13.5-8.8-13.5-20.7c0-11.4,5.9-20.3,13.4-20.3c3,0,4.8,1.2,7.2,4.5c1-3,2.2-4.2,4.2-4.2c2.4,0,4.2,2.5,4.2,5.8v27.9
				H197.5z M176.9,59.9c0,5.9,2.4,9.9,5.9,9.9c3.5,0,5.9-4,5.9-10c0-5.7-2.4-9.7-5.9-9.7C179.3,50.1,176.9,54.1,176.9,59.9z"/>
			<path style="fill:#00418C;" d="M202.5,46.2c0-4,1.7-6.5,4.3-6.5c1.9,0,3.4,1.3,4.2,4c2.4-3.1,3.9-4.2,5.9-4.2
				c2.4,0,4.3,2.7,4.3,5.9c0,2.8-0.8,3.9-4.3,5.2c-4.7,2.1-5.9,3.6-5.9,7.6v15.6c0,3.9-1.7,6.4-4.2,6.4s-4.3-2.5-4.3-6.4v-1.2V46.2z
				"/>
			<path style="fill:#00418C;" d="M223.4,46.5c0-4,1.7-6.6,4.3-6.6c1.9,0,3.1,1.2,4,4c2.5-3.1,4.6-4.2,7.9-4.2
				c6.6,0,10.5,5.2,10.5,14.4v19.9c0,3.9-1.7,6.4-4.2,6.4s-4.3-2.5-4.3-6.4V56.6c0-4.5-1.8-7.2-4.8-7.2c-2.8,0-4.8,2.9-4.8,6.9V74
				c0,3.9-1.7,6.4-4.2,6.4s-4.3-2.5-4.3-6.4v-1.2V46.5H223.4z"/>
			<path style="fill:#00418C;" d="M265.2,29.4c0,3.7-2.2,6.6-5,6.6s-5-2.9-5-6.6c0-3.6,2.2-6.6,5-6.6
				C262.9,22.8,265.2,25.7,265.2,29.4z M255.8,46.1c0-3.9,1.7-6.4,4.2-6.4s4.3,2.5,4.3,6.4v27.8c0,3.9-1.7,6.4-4.2,6.4
				s-4.3-2.5-4.3-6.4V55.3V46.1z"/>
			<path style="fill:#00418C;" d="M270.2,46.5c0-4,1.7-6.6,4.3-6.6c1.9,0,3.1,1.2,4,4c2.5-3.1,4.6-4.2,7.9-4.2
				c6.6,0,10.5,5.2,10.5,14.4v19.9c0,3.9-1.7,6.4-4.2,6.4s-4.3-2.5-4.3-6.4V56.6c0-4.5-1.8-7.2-4.8-7.2c-2.8,0-4.8,2.9-4.8,6.9V74
				c0,3.9-1.7,6.4-4.2,6.4S270,77.9,270,74v-1.2V46.5H270.2z"/>
			<path style="fill:#00418C;" d="M308.6,83.9c1.8,0.8,3.9,1.4,5.2,1.4c4.7,0,6.4-2.5,6.8-10.1c-2.3,4-4.1,5.2-7.1,5.2
				c-7.6,0-13.2-8.3-13.2-20.2s5.7-20.8,13.3-20.8c2.9,0,4.6,1.1,7,4.5c1.2-3.1,2.3-4.2,4.1-4.2c2.4,0,4.1,2.5,4.1,6.3v30.2
				c0,12.3-5.7,19.8-15.2,19.8c-7.2,0-12.9-3.7-12.9-8.5c0-2.8,1.7-5,4-5c0.4,0,0.8,0.1,1.3,0.4L308.6,83.9z M308.9,60.1
				c0,5.6,2.4,9.7,5.8,9.7c3.4,0,5.8-4.1,5.8-9.8s-2.4-9.9-5.8-9.9C311.1,50.1,308.9,54.1,308.9,60.1z"/>
			<path style="fill:#00418C;" d="M355.6,69.8l-1,4.5c-1,4.6-2.2,6.3-4.6,6.3s-4.5-2.7-4.5-5.8c0-1,0.1-1.9,0.4-2.9l10.5-38.5
				c1.1-4.2,3.5-6.6,6.6-6.6s5.4,2.4,6.6,6.6l10.5,38.5c0.2,1,0.4,1.9,0.4,2.8c0,3.1-2.1,5.8-4.5,5.8c-2.1,0-3.6-1.8-4.3-5.1
				l-1.2-5.8h-15V69.8z M363.1,39.5l-4.7,19.7h9.4L363.1,39.5z"/>
			<path style="fill:#00418C;" d="M405.3,53.4c2.4,0,4.1,1.9,4.1,4.8c0,2.9-1.7,5-4.1,5h-17.5c-2.4,0-4.1-1.9-4.1-5
				c0-2.9,1.7-4.8,4.1-4.8h1.6C389.4,53.4,405.3,53.4,405.3,53.4z"/>
			<path style="fill:#00418C;" d="M436.3,69.1c2.7,0,4.5,2.2,4.5,5.3s-1.8,5.3-4.5,5.3H416c-3.4,0-5.7-2.4-5.7-5.9
				c0-1.4,0.4-3,1.2-4.3l1-1.6L429,38.5h-13.4c-2.7,0-4.5-2.2-4.5-5.3c0-3.1,1.8-5.3,4.5-5.3h19.3c3.3,0,5.2,2.3,5.2,6
				c0,1.4-0.5,3.4-1.2,4.6L422,69.1C422,69.1,436.3,69.1,436.3,69.1z"/>
		</g>
	</g>
</g>
</svg>
