<svg width="699" height="412" viewBox="0 0 699 412" fill="none" xmlns="http://www.w3.org/2000/svg">
<path d="M107.78 285.366C113.78 304.016 113.77 313.576 133.77 321.776C148.06 327.636 164.47 328.226 179.51 331.126C196.12 334.316 205.82 341.896 217.19 354.056C221.54 358.706 226.25 362.556 233.01 361.196C237.16 360.366 241.02 358.376 245.3 357.566C262.09 354.406 268.82 368.766 276.99 380.036C282.84 388.106 289.03 396.956 297.68 402.136C303.01 405.336 314.25 410.456 319.81 405.196C322.69 402.466 320.91 398.796 322.95 395.576C325.17 392.066 329.29 391.006 333.15 391.396C371.54 395.256 410.77 414.826 452.78 410.906C461.64 410.076 461.89 405.606 465.05 398.916C471.15 385.986 487.58 387.476 499.12 383.496C501.89 382.536 504.71 381.316 506.93 379.356C509.95 376.686 510.17 373.086 512.59 370.096C518.34 363.016 528.13 356.516 536.37 352.856C576.37 335.086 614.87 318.256 624.81 311.636C631.5 307.186 640.64 302.026 644.21 294.326C646.17 290.106 645.34 284.646 643.64 280.466C639.44 270.106 630.76 256.496 633.05 244.886C634.22 238.946 639.16 233.686 641.5 228.146C643.41 223.636 642.69 219.696 642.07 215.096C641.54 211.176 639.76 207.076 640.11 203.016C641.05 192.076 654.26 183.076 660.17 174.766C667.6 164.316 673.24 152.016 673.59 139.026C674.71 97.906 629.48 92.486 598.52 92.536C577.75 92.566 524.25 106.696 536.9 72.696C539.31 66.216 553.76 51.956 548.64 44.286C544 37.326 529.02 40.716 522.73 42.196C495.65 48.586 465.6 77.236 436.42 67.906C418.98 62.326 421.11 52.546 416.04 38.876C410.97 25.206 392.87 9.676 379.03 4.396C350.5 -6.484 328.67 7.676 301.69 14.576C291.41 17.196 278.7 20.206 268.62 15.736C262.52 13.026 260.84 6.736 253.54 5.146C223.18 -1.484 189.07 42.026 166.73 55.896C127.01 80.556 83.19 86.186 48.19 121.056C31.93 137.256 5.12001 162.926 1.13001 186.946C-2.18999 206.916 11.04 213.886 26.47 221.796C44.78 231.186 99.58 259.896 107.78 285.366Z" fill="#482983"/>
<path d="M575.08 242.835C583.7 210.635 657.19 171.375 613.81 137.015C585.35 114.475 546.18 112.935 511.45 113.695C481.67 114.345 429.89 128.865 411.18 98.1255C404.88 87.7754 404.39 75.9655 401.38 64.5055C394.51 38.3655 378.44 27.3055 350.34 27.2155C313.45 27.0955 269.86 44.7655 236.33 59.2055C195.06 76.9755 154.55 95.0755 115.22 116.555C106.36 121.395 94.1999 126.745 82.2999 133.175C57.7399 146.465 34.3099 164.405 43.3799 192.145C53.8099 224.025 83.3599 225.375 109.88 237.955C129.36 247.195 133.76 261.675 138.56 280.765C146.21 311.145 175.47 326.945 206.35 328.495C228.73 329.615 266.64 321.145 285.53 334.705C300.47 345.425 296.79 365.325 316.15 371.855C358.4 386.115 413.69 374.155 454.52 360.925C534.76 334.925 568.34 302.455 574.94 289.615C583.2 273.545 570.69 259.225 575.08 242.835ZM162.81 261.975C160.6 266.335 156.93 270.005 154.98 274.555C153.33 278.395 154.83 284.295 151.57 287.225C146.37 291.895 143.88 283.965 144.92 280.025C147.18 271.415 154.47 265.965 159.67 259.245C159.89 259.005 160.15 254.775 162.82 255.745C165.71 256.795 163.66 260.295 162.82 261.975H162.81ZM327.51 41.8655C320.7 44.5855 311.97 40.8555 304.5 42.6355C296.14 44.6255 289.11 46.8755 281.77 51.1355C279.63 52.3755 275.94 55.3055 273.5 54.4555C267.91 52.5155 276.71 48.3755 278.69 47.4955C285.8 44.3255 293.11 41.8655 300.59 39.6655C305.31 38.2755 311.88 36.0155 317.95 35.0355C321.41 34.4755 324.71 34.3355 327.41 35.0055C331.95 36.1255 331.83 40.1454 327.5 41.8754L327.51 41.8655ZM600.53 138.325C603.98 139.365 609.63 142.165 612.27 144.575L611.25 143.555C614.79 146.085 619.23 151.255 616.49 155.415C613.52 159.915 608.23 157.445 605.14 154.525C602.04 151.605 601 147.625 598.73 144.055C596.11 139.945 594.27 136.425 600.53 138.315V138.325ZM527.88 323.745C523.15 325.705 517.47 327.675 512.58 325.385C501.89 320.385 513.23 308.615 521.36 313.445C523.28 314.585 521.41 316.575 523.94 317.535C525.97 318.305 529.29 316.155 531.35 315.935C542.14 314.795 532.51 321.815 527.87 323.745H527.88ZM563.96 257.375C548.45 257.365 568.16 227.355 575.42 229.975C575.79 230.105 576.13 230.325 576.43 230.635C580.13 234.485 570.92 242.485 569.84 246.125C568.76 249.795 569.27 257.385 563.96 257.385V257.375Z" fill="#44287B"/>
<path d="M135.88 119.457C166.19 105.267 197.14 92.6967 229.01 81.9467C251.03 74.5167 273.7 68.8067 296.55 64.3967C319.05 60.0567 378.2 49.1467 375.25 88.7367C373.99 105.627 366.68 122.827 389.64 127.697C442.96 138.997 500.42 119.877 554.33 127.837C586.35 132.557 585.9 154.667 569.49 176.137C560.44 187.977 548.21 197.507 540.2 210.127C530.05 226.117 535.76 238.737 533.13 256.027C531.32 267.947 524.25 278.847 516.88 288.237C490.24 322.187 444.32 340.317 404.62 354.717C386.22 361.397 328.66 384.337 323.61 351.407C322.31 342.917 326.18 335.557 322.82 327.567C319.88 320.567 312.55 314.977 306.23 311.607C275.41 295.137 174.51 334.887 161.73 285.927C158.14 272.197 168.81 263.177 169.47 250.067C170.13 236.977 157.35 232.517 146.63 229.777C116 221.957 72.8701 227.677 52.9601 196.657C34.9801 168.647 78.5701 148.277 99.0801 137.637C111.25 131.327 123.52 125.267 135.88 119.477V119.457Z" fill="#3F2471"/>
<path d="M589.13 256.956C588.56 260.286 590.35 262.496 591.69 266.696C593.5 272.396 590.19 273.386 585.81 270.416C581.02 267.166 580.45 260.526 580.04 255.006C579.68 250.186 580.08 246.296 582.21 241.966C585.69 234.896 597.76 222.546 599.88 236.566C601 244.006 594.11 247.086 590.79 252.786C589.84 254.416 589.33 255.756 589.12 256.956H589.13Z" fill="#44287B"/>
<path d="M516.34 300.465C516.48 293.155 541.84 276.315 542.26 288.315C542.46 294.105 535.21 300.385 530.73 303.035C525.34 306.225 516.16 310.015 516.34 300.465Z" fill="#3F2471"/>
<path d="M543.1 211.806C543.74 210.596 544.33 209.596 544.78 208.946C546.67 206.236 549.62 202.256 553.07 201.326C564.77 198.176 556.71 211.906 554.27 216.386C552.15 220.286 544.97 235.146 539.59 228.346C537.17 225.286 540.5 216.756 543.1 211.806Z" fill="#3F2471"/>
<path d="M304.65 384.235C293.11 385.135 268.4 370.665 272.06 356.595C273.95 349.325 281.69 347.035 286.94 352.505C291.25 356.995 290.09 364.825 293.84 369.825C295.49 372.025 310.05 386.075 304.65 384.235Z" fill="#44287B"/>
<path d="M476.12 313.785C471.47 313.785 470.39 310.545 471.68 307.295C473.43 302.885 478.98 304.535 482.41 303.215C486.22 301.755 487.21 295.785 491.57 295.595C494.67 295.455 493.38 299.555 492.67 301.385C491.38 304.735 480.77 313.785 476.12 313.785Z" fill="#44287B"/>
<path d="M493.68 281.237C493.82 279.577 492.72 276.737 490.71 276.537C487.9 276.257 486.84 282.157 487.96 283.987C489.9 287.187 493.47 283.907 493.68 281.237Z" fill="#44287B"/>
<path d="M359.31 362.535C358.87 362.465 358.42 362.335 357.98 362.135C354.7 360.685 351.84 356.895 354.53 353.485C356.43 351.075 360.7 349.775 363.64 349.325C366.03 348.955 373.78 349.325 371.92 353.415C371.43 354.505 369.18 354.925 368.24 355.615C366.61 356.815 367.03 357.405 366.48 358.325C364.99 360.845 362.24 362.995 359.31 362.525V362.535Z" fill="#44287B"/>
<path d="M338.04 66.0966C335.49 66.5766 334.4 68.6466 332.19 69.5966C329.44 70.7866 326.19 70.4466 323.14 70.7666C316.04 71.5166 308.6 73.6966 302.22 77.1766C297.85 79.5666 290.17 85.3466 294.01 90.7766C297.12 95.1666 307.18 95.3066 312 95.3066C321.02 95.3066 331.17 94.0266 339.66 97.0466C345.42 99.0966 351.34 108.237 357.59 108.117C370.24 107.867 369.81 85.7266 367 79.1366C361.68 66.6866 346 65.7166 338.04 66.0966Z" fill="#44287B"/>
<path d="M477.12 327.226C473.94 328.356 465.87 332.476 468.36 334.526C470.79 336.526 475.6 332.516 478.31 332.766C477.9 334.246 477.63 334.966 479.7 334.956C482.24 334.936 485.63 332.626 487.23 330.796C491.15 326.316 484.7 329.006 482.62 328.806C482.67 328.806 481.45 327.176 480.96 326.996C480.16 326.706 478.93 326.836 478.11 326.956C477.9 326.986 477.56 327.086 477.13 327.236L477.12 327.226Z" fill="#3F2471"/>
<path d="M584.17 280.426C585.33 277.926 589.19 275.276 591.38 275.796C592.94 276.176 593.64 277.836 593.61 279.326C593.54 282.266 590.85 284.036 589.22 286.186C587.95 287.856 587 293.126 583.9 292.446C579.4 291.466 584.75 286.766 585.28 285.346C585.91 283.686 583.91 283.496 583.83 281.886C583.81 281.416 583.93 280.916 584.16 280.416L584.17 280.426Z" fill="#44287B"/>
<path d="M181.82 246.147C183.86 256.167 197.31 238.577 194.61 231.847C192.36 226.237 187.68 230.697 185.27 233.777C182.44 237.387 180.81 241.207 181.82 246.157V246.147Z" fill="#44287B"/>
<path d="M349.53 71.0558C346.15 70.3558 341.69 70.4258 339.26 72.4058C336.86 74.3658 337.94 76.5158 334.19 76.9858C330.32 77.4658 316.36 75.6258 322.49 84.3558C327.89 92.0358 350.91 89.5858 357.55 85.7158C360.36 84.0758 362.89 81.9358 360.95 78.5358C359.07 75.2358 355.13 72.9358 351.74 71.6658C351.1 71.4258 350.35 71.2158 349.54 71.0458L349.53 71.0558Z" fill="#482983"/>
<path d="M365.29 91.0563C368.76 94.6063 365.14 97.7663 361.19 95.9263C355.33 93.1963 359.82 85.4563 365.29 91.0563Z" fill="#46297E"/>
<path d="M469.47 306.886C470.74 304.326 468.15 304.456 466.82 305.616C465.88 306.436 462.5 312.016 465.69 311.576C467.03 311.386 468.92 308.006 469.47 306.886Z" fill="#44287B"/>
<path d="M634.27 150.665C637.58 148.645 640.75 152.505 642.31 155.415C644.88 160.215 647.03 180.435 635.77 176.255C630.71 174.375 632.47 168.405 632.79 164.355C633.09 160.505 630.47 153.005 634.28 150.675L634.27 150.665Z" fill="#44287B"/>
<path d="M259.88 296.655C263.45 294.595 271.92 294.075 273.56 298.875C275.8 305.465 246.8 304.205 259.88 296.655Z" fill="#44287B"/>
<path d="M247.51 287.485C250.37 287.725 256.61 288.345 256.39 292.415C256.17 296.465 249.83 299.535 246.59 300.505C244.81 301.035 241.48 302.315 239.94 300.735C238.69 299.445 239.75 296.955 238.8 295.545C237.41 293.475 233.87 292.845 236.55 290.265C238.8 288.095 244.53 287.235 247.51 287.485Z" fill="#44287B"/>
<path d="M257.99 313.007C263.73 313.047 277.09 311.857 279 319.127C274.61 323.737 249.55 325.047 248.35 316.677C250.75 314.247 253.45 314.167 257.99 313.007Z" fill="#3F2471"/>
<path d="M451.75 112.936C440.81 112.936 430.78 110.636 422.59 102.826C420.05 100.406 412.5 91.886 416.26 88.176C420.34 84.146 425.53 92.206 426.84 94.926C429.33 100.076 431.05 103.516 437.02 105.146C441.88 106.476 447.14 105.196 452.02 106.596C456.53 107.886 457.31 112.926 451.74 112.926L451.75 112.936Z" fill="#44287B"/>
<path d="M469.38 103.735C475.31 105.115 471.71 110.505 467.22 110.495C460.13 110.475 462.9 102.235 469.38 103.735Z" fill="#44287B"/>
<path d="M526.71 259.415C527.84 255.475 527.02 249.485 524.86 246.205C523.95 244.835 522.29 242.945 520.7 244.275C519.3 245.445 520.5 248.665 520.18 250.235C519.48 253.565 516.24 256.355 515.76 259.605C515.35 262.385 517.31 265.765 520.41 265.605C523.23 265.465 525.52 262.615 526.45 260.195C526.55 259.945 526.63 259.685 526.71 259.415Z" fill="#44287B"/>
<path d="M525.95 259.205C525.93 259.355 525.92 259.515 525.89 259.665C526.64 260.265 526.79 259.535 526.63 258.225C526.46 258.645 526.24 258.975 525.95 259.205Z" fill="#44287B"/>
<path d="M629.65 112.426L629.39 111.916Z" fill="#44287B"/>
<path d="M429.7 379.545C429.55 376.135 438.95 371.925 441.38 371.525C446.2 370.725 450.75 368.695 455.38 367.205C462.02 365.065 469.47 361.855 476.65 362.345C484.13 362.855 481.69 368.775 476.27 370.505C466.8 373.545 456.68 370.145 447.58 374.835C443.63 376.875 437.1 384.145 432.01 381.935C430.41 381.245 429.74 380.415 429.7 379.535V379.545Z" fill="#44287B"/>
<path d="M424.88 376.415C427.17 375.365 427.5 378.015 426.67 379.535C425.71 381.285 423.85 382.485 421.81 382.015C419.98 381.585 424.19 376.745 424.8 376.445C424.82 376.435 424.85 376.425 424.87 376.415H424.88Z" fill="#44287B"/>
<path d="M177.71 120.656C175.55 120.786 173.4 121.016 171.24 121.346C166.19 122.126 161.55 123.996 156.76 125.886C151.27 128.056 135.39 133.846 135.5 141.756C135.59 147.956 144.6 148.656 145.49 154.636C146.14 159.006 141.91 166.436 147.82 168.536C150.87 169.616 160.75 165.506 163.96 164.506C173.58 161.506 183.16 157.216 191.93 152.246C196.67 149.556 234.21 127.296 218.94 122.496C213.32 120.736 206.06 123.586 199.92 122.356C192.53 120.886 185.13 120.196 177.72 120.646L177.71 120.656Z" fill="#44287B"/>
<path d="M232.43 75.7158C237.17 72.5058 242.63 70.6758 248.02 68.7058C249.68 68.0958 264.99 63.9058 264.91 67.0458C264.87 68.6358 256.19 71.1858 254.66 71.8358C251.02 73.3658 247.46 74.4058 243.73 75.5258C242.37 75.9358 230.33 79.3758 232.42 75.7158H232.43Z" fill="#3F2471"/>
<path d="M284.76 32.9651C287 35.8251 282.03 38.1551 280.26 39.2251C277.81 40.6951 275.35 41.6751 272.49 41.8451C270.36 41.9751 267.74 41.2251 269.61 38.7651C271.15 36.7351 283.06 30.7851 284.76 32.9651Z" fill="#44287B"/>
<path d="M287.95 37.3061C287.83 36.0761 291.17 33.9761 291.71 33.7061C292.25 33.4361 298.92 30.9661 299.01 32.0061C299.28 34.9861 295.68 36.4361 293.37 37.1161C292.32 37.4261 289.97 38.3061 288.91 38.0561C288.27 37.9061 287.99 37.6361 287.95 37.3061Z" fill="#44287B"/>
<path d="M697.92 132.435C696.97 130.285 689.59 124.295 687.2 126.435C683.72 129.545 691.57 133.955 693.64 135.025C696.88 136.705 700.05 137.255 697.92 132.435Z" fill="#482983"/>
<path d="M156.64 133.657C153.47 135.557 148.9 139.377 154.26 141.817C157.42 143.257 163.97 139.817 166.55 142.957C169.81 146.927 162.86 146.567 163.07 150.307C164 166.797 226.06 127.877 192.88 131.267C188.38 131.727 180.98 128.537 176.43 128.577C169.07 128.637 160.87 131.127 156.64 133.657Z" fill="#482983"/>
<path d="M518.98 10.8867C525.64 10.8867 534.01 11.1467 538.9 15.7367C544.85 21.3267 540.57 26.2367 533.61 27.2767C529.1 27.9567 518.21 28.5967 514.3 26.2567C507.49 22.1667 509.7 14.5467 518.98 10.8867Z" fill="#482983"/>
<path d="M73.5801 104.086C75.121 104.086 76.3701 102.837 76.3701 101.296C76.3701 99.755 75.121 98.5059 73.5801 98.5059C72.0392 98.5059 70.79 99.755 70.79 101.296C70.79 102.837 72.0392 104.086 73.5801 104.086Z" fill="#665DB7"/>
<path d="M95.3799 145.306L97.3299 145.046L98.3699 143.396L99.2198 145.156L101.12 145.646L99.6999 146.996L99.8299 148.956L98.0999 148.016L96.2799 148.746L96.6299 146.816L95.3799 145.306Z" fill="#844A94"/>
<path d="M129.27 152.116L130.75 151.916L131.55 150.656L132.2 152.006L133.65 152.376L132.56 153.406L132.66 154.896L131.34 154.186L129.95 154.736L130.22 153.266L129.27 152.116Z" fill="#9653A8"/>
<path d="M225.95 116.467L227.64 116.247L228.55 114.807L229.28 116.337L230.93 116.757L229.7 117.937L229.81 119.627L228.31 118.817L226.73 119.447L227.04 117.777L225.95 116.467Z" fill="#7C498A"/>
<path d="M336.51 305.246C337.841 305.246 338.92 304.167 338.92 302.836C338.92 301.505 337.841 300.426 336.51 300.426C335.179 300.426 334.1 301.505 334.1 302.836C334.1 304.167 335.179 305.246 336.51 305.246Z" fill="#635CA4"/>
<path d="M227.84 294.405C229.116 294.405 230.15 293.371 230.15 292.095C230.15 290.819 229.116 289.785 227.84 289.785C226.564 289.785 225.53 290.819 225.53 292.095C225.53 293.371 226.564 294.405 227.84 294.405Z" fill="#5F589E"/>
<path d="M541.21 247.805C542.204 247.805 543.01 246.999 543.01 246.005C543.01 245.011 542.204 244.205 541.21 244.205C540.216 244.205 539.41 245.011 539.41 246.005C539.41 246.999 540.216 247.805 541.21 247.805Z" fill="#7770B6"/>
<path d="M480.58 187.305C482.099 187.305 483.33 186.073 483.33 184.555C483.33 183.036 482.099 181.805 480.58 181.805C479.061 181.805 477.83 183.036 477.83 184.555C477.83 186.073 479.061 187.305 480.58 187.305Z" fill="#5E56A3"/>
<path d="M375.71 341.676C376.859 341.676 377.79 340.744 377.79 339.596C377.79 338.447 376.859 337.516 375.71 337.516C374.561 337.516 373.63 338.447 373.63 339.596C373.63 340.744 374.561 341.676 375.71 341.676Z" fill="#5249A5"/>
<path d="M397.94 139.444C399.354 139.444 400.5 138.298 400.5 136.884C400.5 135.47 399.354 134.324 397.94 134.324C396.526 134.324 395.38 135.47 395.38 136.884C395.38 138.298 396.526 139.444 397.94 139.444Z" fill="#5E56A6"/>
<path d="M613.88 172.596C615.101 172.596 616.09 171.606 616.09 170.386C616.09 169.165 615.101 168.176 613.88 168.176C612.66 168.176 611.67 169.165 611.67 170.386C611.67 171.606 612.66 172.596 613.88 172.596Z" fill="#4F45A9"/>
<path d="M631.45 232.956L634.35 232.566L635.92 230.086L637.18 232.726L640.02 233.456L637.9 235.476L638.09 238.396L635.51 237.006L632.79 238.086L633.32 235.206L631.45 232.956Z" fill="#9358A3"/>
<path d="M432.02 339.757L433.58 339.547L434.42 338.227L435.09 339.637L436.61 340.027L435.48 341.107L435.58 342.677L434.2 341.927L432.74 342.507L433.03 340.967L432.02 339.757Z" fill="#8D539D"/>
<path d="M514.52 107.006L516.03 106.796L516.85 105.516L517.51 106.886L518.98 107.266L517.88 108.316L517.98 109.836L516.64 109.116L515.22 109.676L515.49 108.176L514.52 107.006Z" fill="#A551BC"/>
<path d="M560.75 280.106L562.19 279.906L562.97 278.686L563.59 279.996L565 280.346L563.95 281.346L564.04 282.796L562.76 282.106L561.42 282.646L561.68 281.216L560.75 280.106Z" fill="#9859AA"/>
<path d="M112.18 186.126C113.638 186.126 114.82 184.944 114.82 183.486C114.82 182.028 113.638 180.846 112.18 180.846C110.722 180.846 109.54 182.028 109.54 183.486C109.54 184.944 110.722 186.126 112.18 186.126Z" fill="#6F67BC"/>
<path d="M163.68 322.175C165.309 322.175 166.63 320.855 166.63 319.225C166.63 317.596 165.309 316.275 163.68 316.275C162.051 316.275 160.73 317.596 160.73 319.225C160.73 320.855 162.051 322.175 163.68 322.175Z" fill="#6259B3"/>
<path d="M188.61 167.446C189.626 167.446 190.45 166.622 190.45 165.606C190.45 164.589 189.626 163.766 188.61 163.766C187.594 163.766 186.77 164.589 186.77 165.606C186.77 166.622 187.594 167.446 188.61 167.446Z" fill="#6A64A3"/>
<path d="M243.24 90.5959C243.864 90.5959 244.37 90.09 244.37 89.4659C244.37 88.8419 243.864 88.3359 243.24 88.3359C242.616 88.3359 242.11 88.8419 242.11 89.4659C242.11 90.09 242.616 90.5959 243.24 90.5959Z" fill="#6058AD"/>
<path d="M324.62 44.5258C326.028 44.5258 327.17 43.3841 327.17 41.9758C327.17 40.5675 326.028 39.4258 324.62 39.4258C323.212 39.4258 322.07 40.5675 322.07 41.9758C322.07 43.3841 323.212 44.5258 324.62 44.5258Z" fill="#2270A7"/>
</svg>
